PathFileType	4	(X/Y/Z)	36_1_rein_29_p1_0-384.trc
DataRate	CameraRate	NumFrames	NumMarkers	Units	OrigDataRate	OrigDataStartFrame	OrigNumFrames
58.0	58.0	4	27	m	58.0	0	385
Frame#	Time	RHip			RKnee			RAnkle			RBigToe			RSmallToe			RHeel			LHip			LKnee			LAnkle			LBigToe			LSmallToe			LHeel			Neck			Head			Nose			RShoulder			RElbow			RWrist			RThumb			RIndex			RPinky			LShoulder			LElbow			LWrist			LThumb			LIndex			LPinky			
		X1	Y1	Z1	X2	Y2	Z2	X3	Y3	Z3	X4	Y4	Z4	X5	Y5	Z5	X6	Y6	Z6	X7	Y7	Z7	X8	Y8	Z8	X9	Y9	Z9	X10	Y10	Z10	X11	Y11	Z11	X12	Y12	Z12	X13	Y13	Z13	X14	Y14	Z14	X15	Y15	Z15	X16	Y16	Z16	X17	Y17	Z17	X18	Y18	Z18	X19	Y19	Z19	X20	Y20	Z20	X21	Y21	Z21	X22	Y22	Z22	X23	Y23	Z23	X24	Y24	Z24	X25	Y25	Z25	X26	Y26	Z26	X27	Y27	Z27	
0	0.0	0.32062132408118543	0.5894666360006701	-0.1495943309247598	0.3525340595579309	0.6782615798010059	0.28000199105047446	0.3756355530261302	0.7704632772251444	0.7351514750600958	0.32913291528538113	0.517756680147066	0.7441036722816631	0.3953273675055633	0.5644878569487216	0.756405383206915	0.35461852455700194	0.845349066312167	0.7873045153583996	0.10800152814432577	0.5782612737958208	-0.12245538354793141	0.14092410647229323	0.6690945489801536	0.31281192700196025	0.17849473218031858	0.7112378640224543	0.7108062085746706	0.18760703099280848	0.5333822294870886	0.7518257517287659	0.13514202005616127	0.5788645086943912	0.7644077670756061	0.19543264674849362	0.8045466356926463	0.784306744981743	0.16335219332378778	0.4776178332131777	-0.7649973547505111	0.1388088928953638	0.41410490762766483	-1.0355223574610677	0.15398613705062095	0.358372863740249	-0.8663552402392578	0.3418800779794518	0.5585074889846768	-0.6961170546691208	0.4178310416013156	0.4958051742017742	-0.4218998275049781	0.231070952863981	0.3934731645186029	-0.2281707461236729	0.1459925163253069	0.3885680919594217	-0.19158231038369802	0.11090450090298015	0.39790954436614817	-0.14245767898221842	0.12953742264899745	0.3612108602015387	-0.12864930738492047	-0.0031584812218253505	0.502331432922181	-0.673908837856195	-0.008868270438935818	0.5067193283426544	-0.3929272634114534	0.12792786418796584	0.413811545272904	-0.1922963739769088	0.17669633547533373	0.3364612272335516	-0.1645481719177606	0.19331726451346384	0.3808158550084817	-0.09614864165539279	0.2002702466018843	0.40893435087304697	-0.07542024070154218
1	0.017241379310344827	0.3190889723229993	0.5884431111814771	-0.1581946347656985	0.3561077744854828	0.6627118699883467	0.2746720779237284	0.37565085919257063	0.7704351685943673	0.7350814565451118	0.3251284615385072	0.5051666505159069	0.7388396961578871	0.3941437239011805	0.547377179430697	0.7479286021531306	0.354757680585707	0.8450975336627482	0.7873067122653732	0.1066395245976556	0.5789408347950745	-0.13397602803542608	0.14102770288338037	0.6687165363996713	0.31247937699125244	0.17753069692885506	0.7125918403538639	0.7069545315619448	0.18774601400103286	0.533101650969744	0.7517064774640193	0.13520239636856365	0.5790392266357243	0.7645540330223626	0.1951177096071147	0.8046419291960538	0.7851478228468051	0.16337957101829864	0.47769359150426743	-0.7649027652504197	0.14288324267560154	0.40250628187639637	-1.0346700271103213	0.15677534120641345	0.3691744153834447	-0.8673222221811404	0.3379017456458708	0.5569154791949373	-0.6957281351359759	0.41780192740060856	0.49574927600589375	-0.4184316797244917	0.22996560422131454	0.4188932441949581	-0.22041296903734392	0.1268415053093401	0.4374755469848622	-0.1722488206425282	0.1158744211786896	0.4199091132607063	-0.13126531877354694	0.13732929635938468	0.36204944379385107	-0.11971357187785654	0.0007223650412550808	0.505157520056446	-0.6744466614433444	-0.0037890236590242326	0.4936625451174941	-0.39116785282322003	0.13731501648299885	0.38700594988666864	-0.1938564504285304	0.17758640653346422	0.3259478173399169	-0.15848777617418938	0.2026066079296349	0.38359003311979817	-0.08853056507773283	0.19981155556478097	0.40845139305612266	-0.07575130719232069
2	0.034482758620689655	0.31495002147995144	0.6035213428319584	-0.15190411382907046	0.35203956860640784	0.6785637092415379	0.28413036650579526	0.3742170564001069	0.7682448004922817	0.7292952549492704	0.3253503169896508	0.5057497113614644	0.738751559341184	0.399163690076785	0.549482531651272	0.7481224867663677	0.35328007038140785	0.8429221578750137	0.7809468224153366	0.10108886401956141	0.5908956688296183	-0.13580735094163687	0.1409308682845532	0.6690855277076143	0.31264267675676727	0.17717524682182303	0.7096952187684668	0.7057198492163669	0.19069264464864186	0.5465392541946286	0.7576255538903921	0.1352514414015209	0.5789959844864929	0.7644511251183864	0.19560869462114025	0.8053769096557777	0.7851442406380273	0.16294645744157357	0.47755521820661684	-0.7682941998871529	0.14291523743252785	0.40260575236969737	-1.0348135916929975	0.1567964450340286	0.3694697543168091	-0.8674495040389323	0.3379012165288873	0.5568836077633453	-0.6957401462168219	0.4177262810067781	0.49566082906755654	-0.41839092626956637	0.22674905855997768	0.4063221218803375	-0.221886836422267	0.12481767171471228	0.4259593386812292	-0.17096628418458176	0.12237511361145986	0.4784895472596648	-0.10585932629944031	0.15256324509138527	0.3913610804108213	-0.10445465442460167	0.0003067200831309837	0.5048040208599909	-0.6781678854645237	-5.237851053597049e-05	0.49403715694564887	-0.39543688590064	0.14004903755200956	0.40000387722981223	-0.1996133395231137	0.18799384344989276	0.3475322045184399	-0.14228436122722124	0.211032731670733	0.3883925493046835	-0.09284219852532176	0.20001777832944645	0.4085065799219753	-0.0867350208982511
3	0.05172413793103448	0.3140465330815868	0.6014126952503356	-0.15710844073791205	0.354503285515193	0.6614417047161746	0.2739908045994343	0.3742402551021696	0.7684423315457476	0.7293367043889964	0.3290650240659523	0.5176666592985014	0.7439835588594111	0.3978933765731954	0.5599514024798992	0.7533096019188018	0.3532954812040462	0.8428661114152927	0.7809631799862533	0.10039238305244359	0.5902819030694402	-0.1400855326600913	0.14000564807554458	0.6673943119642554	0.30750886089677537	0.1772093619671651	0.7100226161136236	0.7059239187687167	0.1949296315802179	0.5317811951022083	0.7501604598081157	0.13539033821747753	0.5787975779397259	0.7643065465345594	0.1955562803932542	0.8056762435885633	0.7854652017036182	0.1629427302889977	0.47745028481081947	-0.7683090330580337	0.14292603945114254	0.4024998215562849	-1.0347502721467352	0.16072512446352707	0.35717576595201983	-0.8670925123448573	0.33789390839147204	0.5568961634447094	-0.6957135024646874	0.41356585363015635	0.4949453203660325	-0.4180266938592246	0.23058627113390734	0.4196203062554178	-0.21660767205885118	0.12645555786892554	0.4005096396333716	-0.17580550561625533	0.12374974426284827	0.4538118285011905	-0.11030198339627889	0.15273097234713712	0.3922739687393763	-0.1041351181020163	-0.0016863997298852498	0.4931502290474166	-0.6741831115339608	-3.540519239966633e-05	0.4939784330618352	-0.39889449682728995	0.14011570101868234	0.399628195880559	-0.19954682430044943	0.18753579909703802	0.3223647460344726	-0.15060816654245143	0.211846632269032	0.3882825924929838	-0.09229070029357368	0.20446318338740638	0.4091566154945853	-0.08652418980376053
